<svg width="37" height="26" viewBox="0 0 37 26" fill="none" xmlns="http://www.w3.org/2000/svg">
<path fill-rule="evenodd" clip-rule="evenodd" d="M6.79419 0H10.1919V3.34301H6.79419V0ZM6.79419 6.31669V9.65731H3.39894V16.3433H6.79419V19.3152V22.6579H10.1919V19.3152H26.8044V22.657H20.3866V26H26.8044V22.6579H30.2021V16.3433H33.5973V9.65731H30.2021H30.2005V6.31669H26.8068V3.34423H23.4092V6.31669H13.5871V3.34423H10.1895V6.31669H6.79419ZM26.8044 12.9979V9.65972H23.4039V12.9979H26.8044ZM13.5884 9.65972V12.9979H10.1919V9.65972H13.5884ZM3.39769 12.9979H0V22.6555H3.39769V12.9979ZM16.6113 26V22.657H10.1934V26H16.6113ZM30.2021 0H26.8044V3.34301H30.2021V0ZM37 12.9979H33.6023V22.6555H37V12.9979Z" fill="white"/>
</svg>
