<svg width="208" height="146" viewBox="0 0 208 146" fill="none" xmlns="http://www.w3.org/2000/svg">
<path fill-rule="evenodd" clip-rule="evenodd" d="M38.1944 0L57.2951 0V18.7723H38.1944V0ZM38.1944 35.4706V54.2295H19.1075L19.1075 91.7742H38.1944V108.462V127.233H57.2951V108.462H150.684V127.228H114.606V146H150.684V127.233H169.785V91.7742H188.872V54.2295H169.785H169.776V35.4706H150.698V18.7792H131.598V35.4706L76.3817 35.4706V18.7792L57.2813 18.7792V35.4706H38.1944ZM150.684 72.988V54.243H131.568V72.988H150.684ZM76.3886 54.243V72.988H57.2951V54.243H76.3886ZM19.1005 72.988H0L0 127.22H19.1005V72.988ZM93.3827 146V127.228H57.3036L57.3036 146H93.3827ZM169.785 0L150.684 0V18.7723H169.785V0ZM208 72.988H188.9V127.22H208V72.988Z" fill="#F5F5F5"/>
</svg>
