<svg width="494" height="148" viewBox="0 0 494 148" fill="none" xmlns="http://www.w3.org/2000/svg">
<path fill-rule="evenodd" clip-rule="evenodd" d="M409.689 32.824H430.103V43.0885H440.484V53.3531H450.516V43.0885H460.897V32.824H481.31V43.0885H491.575V73.8831H481.31V84.1476H471.046V94.4132H460.78V104.678H450.749V114.176H440.484V104.678H430.219V94.4132H419.955V84.1476H409.689V73.8831H399.425V43.0885H409.689V32.824Z" fill="white"/>
<path d="M373.328 90.536H341.072V84.008H373.328V90.536ZM373.328 77.608H341.072V71.08H373.328V77.608Z" fill="white"/>
<path fill-rule="evenodd" clip-rule="evenodd" d="M22.7697 27H34.1567V38.3148H22.7697V27ZM22.7697 48.3796V59.6863H11.391V82.3159H22.7697V92.3744V103.688H34.1567V92.3744H89.8309V103.685H68.3226V115H89.8309V103.688H101.218V82.3159H112.596V59.6863H101.218H101.213V48.3796H89.8392V38.3189H78.4524V48.3796H45.5352V38.3189H34.1485V48.3796H22.7697ZM89.8309 70.9928V59.6944H78.4347V70.9928H89.8309ZM45.5393 59.6944V70.9928H34.1567V59.6944H45.5393ZM11.3869 70.9928H0V103.68H11.3869V70.9928ZM55.6704 115V103.685H34.1618V115H55.6704ZM101.218 27H89.8309V38.3148H101.218V27ZM124 70.9928H112.613V103.68H124V70.9928Z" fill="white"/>
<path d="M161.936 62.616H168.464V75.544H181.328V82.072H168.464V95H161.936V82.072H149.072V75.544H161.936V62.616Z" fill="white"/>
<g clip-path="url(#clip0_40000173_266)">
<mask id="mask0_40000173_266" style="mask-type:luminance" maskUnits="userSpaceOnUse" x="185" y="0" width="148" height="148">
<path d="M333 0H185V148H333V0Z" fill="white"/>
</mask>
<g mask="url(#mask0_40000173_266)">
<mask id="mask1_40000173_266" style="mask-type:luminance" maskUnits="userSpaceOnUse" x="211" y="23" width="95" height="106">
<path d="M211.909 23.7655H305.18V128.119H211.909V23.7655Z" fill="white"/>
</mask>
<g mask="url(#mask1_40000173_266)">
<path d="M216.401 48.0406C216.854 54.0652 217.917 64.3746 220.303 74.6234C221.946 81.6901 224.215 88.7364 227.328 94.2807C231.953 102.521 238.418 109.072 244.508 113.964C250.043 118.41 255.268 121.496 258.554 123.246C261.825 121.506 267.034 118.43 272.569 113.989C278.654 109.103 285.13 102.541 289.769 94.2807C292.868 88.7468 295.137 81.7052 296.775 74.6332C299.155 64.3796 300.223 54.0652 300.677 48.0406C294.734 45.3139 290.522 41.7121 287.556 37.9939C284.84 34.5899 283.151 31.0842 282.113 28.0845H234.985C233.759 31.6252 231.632 35.8693 227.959 39.8202C225.131 42.8759 221.366 45.7639 216.401 48.0406ZM216.121 75.5745C213.461 64.1166 212.397 52.6488 212.011 46.8314L211.909 45.309L213.328 44.717C218.364 42.6275 222.079 39.8557 224.795 36.9268C228.488 32.9508 230.391 28.6607 231.358 25.3524L231.81 23.8047H285.282L285.74 25.3524C286.58 28.2259 288.126 31.8427 290.914 35.3333C293.717 38.8389 297.812 42.2484 303.749 44.717L305.168 45.309L305.067 46.8314C304.68 52.6488 303.612 64.1265 300.956 75.5841C299.242 82.9955 296.836 90.4211 293.514 96.3547C288.559 105.182 281.691 112.153 275.256 117.318C268.856 122.457 262.832 125.862 259.536 127.551L258.549 128.052L257.572 127.551C254.255 125.851 248.227 122.437 241.822 117.292C235.376 112.117 228.519 105.157 223.584 96.3547C220.252 90.411 217.841 82.9799 216.121 75.5745Z" fill="white"/>
</g>
<path d="M257.289 42.6749H265.829C274.815 42.1434 277.129 42.0553 278.463 42.0553H279.887C297.591 42.0553 306.845 46.9208 306.845 56.122C306.845 60.6337 304.709 63.9077 300.528 66.0308C297.681 67.4459 295.635 68.3315 289.852 69.4809C295.635 70.1886 298.126 71.0739 301.418 72.7549C306.756 75.6737 309.693 80.5392 309.693 86.202C309.693 89.4745 308.535 92.7485 306.489 95.1372C302.486 99.8269 296.88 101.684 285.937 101.684H257.289V100.445C260.047 99.2953 260.847 97.8799 260.847 94.6057V49.753C260.847 46.479 260.047 45.0636 257.289 43.9142V42.6749ZM275.35 68.4195H279.442C288.961 68.4195 293.766 64.3495 293.766 56.21C293.766 48.7797 289.14 44.356 281.577 44.356C277.04 44.356 275.35 45.7713 275.35 49.5754V68.4195ZM275.35 71.3398V94.5176C275.35 98.1456 277.129 99.4729 281.845 99.4729C284.247 99.4729 286.203 99.1192 287.805 98.4995C292.165 96.6407 295.279 91.1555 295.279 85.1406C295.279 76.0275 290.029 71.3398 279.798 71.3398H275.35Z" fill="white"/>
<mask id="mask2_40000173_266" style="mask-type:luminance" maskUnits="userSpaceOnUse" x="243" y="41" width="15" height="15">
<path d="M243.918 41.671H257.069V55.1782H243.918V41.671Z" fill="white"/>
</mask>
<g mask="url(#mask2_40000173_266)">
<path d="M246.076 44.2001L246.214 44.5992C246.359 45.1552 246.557 45.6915 246.735 46.2346L246.84 46.4897L246.866 46.614C246.919 46.7314 246.965 46.8557 247.005 46.98L247.275 47.1044C247.604 47.1636 247.94 47.17 248.263 47.2223C248.757 47.2879 249.224 47.4709 249.712 47.5491C250.199 47.6278 250.739 47.7588 251.24 47.9026C251.293 48.282 251.332 48.668 251.437 49.0407C251.543 49.4137 251.583 49.8784 251.701 50.2839C251.819 50.6897 251.872 51.0685 251.945 51.4612L252.017 51.6642C252.07 51.9847 252.142 52.3051 252.201 52.6258C252.514 52.7738 252.817 52.9393 253.11 53.1228C254.006 53.6657 254.902 54.2086 255.837 54.6797C256.187 54.8758 256.556 55.053 256.951 55.1442C257.346 55.236 257.774 54.9286 258.162 54.7582C258.953 54.3921 259.684 53.9208 260.448 53.5022C260.843 53.2602 261.225 52.9987 261.627 52.7762C261.778 52.6832 261.919 52.5764 262.049 52.4558C262.108 52.0323 262.191 51.6137 262.299 51.1995C262.47 50.5061 262.648 49.8128 262.767 49.1063L262.806 48.9233C262.872 48.6552 262.892 48.3868 262.964 48.1251L262.984 47.9351C263.3 47.7913 263.649 47.7457 263.991 47.6801C264.453 47.5691 264.92 47.484 265.382 47.3597C266.014 47.1961 266.673 47.1436 267.311 46.9998C267.417 46.5222 267.607 46.0711 267.733 45.5933C267.963 44.9522 268.128 44.2983 268.332 43.6505C268.464 43.3693 268.464 43.0095 268.701 42.7934C269.169 42.6037 269.643 42.4207 270.098 42.1851V41.6812C269.432 41.7991 268.747 41.7926 268.082 41.93C267.417 42.0672 266.62 42.0477 265.902 42.1918C265.183 42.3356 264.532 42.2769 263.86 42.3945C263.491 42.3876 263.129 42.486 262.76 42.4794L262.687 42.5319L262.141 42.5581C261.864 42.6168 261.581 42.6168 261.311 42.6824C261.041 42.7477 260.646 42.7149 260.316 42.7736C259.565 42.8328 258.801 42.859 258.057 42.9833C257.774 42.9964 257.497 43.0095 257.22 43.042C256.14 43.0095 255.067 42.8328 253.993 42.7867C253.552 42.728 253.097 42.7411 252.669 42.6234C251.457 42.5711 250.265 42.3094 249.047 42.2702C248.625 42.2112 248.203 42.1982 247.789 42.0933C247.202 42.0544 246.623 41.969 246.036 41.9365C245.378 41.7991 244.706 41.7598 244.041 41.7534L243.955 42.0672C244.541 42.4273 245.194 42.656 245.78 43.0095C245.839 43.4083 245.977 43.801 246.076 44.2001Z" fill="white"/>
</g>
<mask id="mask3_40000173_266" style="mask-type:luminance" maskUnits="userSpaceOnUse" x="230" y="46" width="28" height="57">
<path d="M230.385 46.723H257.067V102.011H230.385V46.723Z" fill="white"/>
</mask>
<g mask="url(#mask3_40000173_266)">
<path d="M282.241 76.7824C281.727 76.3569 281.378 75.7681 280.858 75.3495C280.305 74.7674 279.732 74.1983 279.145 73.649C278.684 73.1581 278.19 72.687 277.729 72.1966C277.821 71.948 278.012 71.7519 278.131 71.5163C278.414 70.9862 278.796 70.5084 279.073 69.9791C279.35 69.449 279.672 69.1152 279.903 68.6444C280.133 68.1732 280.443 67.7023 280.772 67.2707C281.134 66.7342 281.464 66.1782 281.819 65.6353C282.135 65.2162 282.366 64.7453 282.695 64.3334C283.025 63.9212 283.38 63.3196 283.749 62.8351L283.73 62.7305C283.295 62.5539 282.919 62.2596 282.478 62.0961C281.615 61.625 280.706 61.2453 279.824 60.8073C278.809 60.3033 277.756 59.8978 276.774 59.3418C276.359 59.1524 275.944 58.9622 275.509 58.7989C275.509 59.7671 275.667 60.7286 275.635 61.6972C275.458 61.5006 275.296 61.2934 275.147 61.0754C274.818 60.565 274.357 60.1531 274.008 59.6561C273.659 59.1588 273.211 58.6548 272.881 58.1055C272.408 57.5167 271.969 56.9043 271.564 56.2674C271.169 55.7244 270.741 55.201 270.365 54.645C270.023 54.2129 269.654 53.8209 269.351 53.3693L269.549 53.2713L269.72 53.2578L269.786 53.2121C269.968 53.1825 270.148 53.1409 270.326 53.0878C270.701 52.9966 271.084 52.9504 271.445 52.8261C272.025 52.7149 272.598 52.5449 273.184 52.4601C273.77 52.375 274.232 52.205 274.759 52.1002L274.936 52.0676C275.183 52.0013 275.433 51.9551 275.688 51.9302C275.72 52.7805 275.885 53.6243 275.898 54.4812C276.004 55.5281 276.102 56.5683 276.168 57.6151C276.274 57.8112 276.373 58.0271 276.57 58.1381C276.768 58.2493 277.064 58.2624 277.308 58.3411C277.551 58.4193 277.96 58.498 278.243 58.681L278.54 58.6941C278.675 58.5902 278.818 58.4965 278.967 58.4129L279.033 58.2168C278.954 57.9094 278.928 57.5885 278.869 57.2812C278.724 56.699 278.724 56.0972 278.585 55.515C278.541 55.3253 278.519 55.1339 278.519 54.9393L278.467 54.8673C278.421 54.1413 278.263 53.4282 278.19 52.7018C278.156 52.3237 278.099 51.9485 278.019 51.5767C277.973 51.1451 277.927 50.7134 277.855 50.2884C277.795 50.02 277.565 49.8627 277.354 49.7122C276.718 49.1898 276.125 48.6232 275.575 48.0117C275.147 47.6256 274.772 47.194 274.357 46.7949L273.962 46.8666C273.237 47.063 272.48 47.0891 271.775 47.3509L271.61 47.377C270.603 47.6843 269.568 47.9068 268.554 48.2011C267.988 48.3647 267.414 48.5156 266.841 48.6528L266.71 48.6986C266.407 48.7768 266.097 48.8358 265.794 48.8945C265.333 49.0716 264.819 49.045 264.371 49.2677L264.352 49.4835C264.246 50.1049 264.154 50.7265 263.996 51.3348C263.97 51.6424 263.897 51.9497 263.89 52.2571L264.075 52.2963C264.668 52.7479 265.188 53.2908 265.741 53.7879C266.176 54.1413 266.545 54.5599 266.967 54.9262C267.388 55.2923 267.678 55.5345 268.014 55.8554C268.488 56.2804 268.943 56.7252 269.45 57.1112C269.957 57.4972 270.457 57.8502 270.879 58.3149C271.103 58.5436 271.208 58.845 271.413 59.0865C271.617 59.3287 271.722 59.6756 271.933 59.9439C272.143 60.2121 272.374 60.6437 272.611 60.9839C272.849 61.324 273.046 61.6773 273.296 61.9979C273.803 62.6388 274.219 63.3455 274.706 63.9999C275.075 64.4772 275.338 65.0201 275.72 65.4846C275.99 65.7921 276.201 66.1451 276.445 66.4725C276.142 66.8321 275.839 67.192 275.523 67.5388C274.917 68.304 274.271 69.0435 273.632 69.7825C272.993 70.6263 272.229 71.3658 271.61 72.2225C271.261 72.6608 270.886 73.0663 270.556 73.518C270.227 73.9694 269.884 74.2506 269.588 74.6497C269.068 75.3105 268.501 75.9383 268.014 76.625C267.79 76.9915 267.724 77.4166 267.553 77.8026C267.427 78.0904 267.368 78.3978 267.243 78.6795C267.046 79.268 266.874 79.8699 266.637 80.4459L266.617 80.5697L266.512 80.8314C266.426 81.0995 266.354 81.3679 266.255 81.6296L266.216 81.7473C266.044 82.3033 265.814 82.8398 265.623 83.3893C265.432 83.9387 265.3 84.3509 265.142 84.8351L265.063 85.0247C264.951 85.4172 264.958 85.823 264.879 86.2218C264.852 86.5097 264.859 86.804 264.839 87.0982L264.852 87.0462C264.767 87.8834 264.78 88.7341 264.575 89.5518C264.286 89.4472 264.055 89.2376 263.798 89.0676C263.569 88.9063 263.358 88.7228 263.166 88.518C262.204 89.1093 261.194 89.6041 260.136 90.0032C259.511 90.317 258.865 90.5656 258.233 90.8599C257.877 90.9909 257.554 91.2134 257.179 91.2851C256.922 91.2657 256.698 91.1347 256.468 91.0365C255.901 90.7617 255.295 90.5723 254.749 90.2649C253.589 89.7805 252.377 89.3488 251.37 88.5834C250.928 88.8646 250.46 89.1263 250.052 89.4536C249.894 89.3293 249.743 89.2114 249.585 89.0938C249.506 87.8247 249.466 86.5553 249.308 85.2995L249.255 85.2408V85.0442C249.044 84.5344 248.926 83.9848 248.715 83.4744L248.577 83.1471C248.379 82.4932 248.142 81.8455 247.918 81.198L247.786 80.8578C247.674 80.5502 247.589 80.2362 247.457 79.9355C247.411 79.785 247.371 79.6277 247.332 79.4772L247.24 79.3665C247.18 79.1153 247.094 78.8731 246.983 78.64C246.831 78.1297 246.654 77.6262 246.476 77.1223C246.337 76.7232 246.081 76.3899 245.804 76.0754C245.415 75.6307 245.086 75.1334 244.691 74.6887C243.933 73.8189 243.209 72.929 242.497 72.0266C241.331 70.5938 240.113 69.2134 238.928 67.7936C238.559 67.3555 238.163 66.9369 237.828 66.4791C238.242 65.8834 238.736 65.3472 239.099 64.7194C239.428 64.2349 239.79 63.7707 240.1 63.2734C240.469 62.6323 240.989 62.1028 241.365 61.4681C241.648 61.069 241.891 60.6504 242.194 60.2643C242.497 59.8783 242.754 59.3354 243.038 58.8776C243.446 58.1842 244.137 57.7456 244.737 57.2355C245.297 56.8364 245.738 56.3066 246.278 55.888C247.016 55.201 247.76 54.5274 248.484 53.8273C249.117 53.2713 249.71 52.6759 250.375 52.1655C250.316 51.8582 250.276 51.5442 250.223 51.2368C250.046 50.5827 250.006 49.9024 249.835 49.2415C249.472 49.1303 249.091 49.0847 248.722 49.0255C248.353 48.9668 247.82 48.8294 247.371 48.7051C246.759 48.5351 246.14 48.3913 245.527 48.2142L245.362 48.1424C245.165 48.0835 244.961 48.0378 244.763 47.9855C244.355 47.8351 243.927 47.7761 243.519 47.6518C243.11 47.5275 242.629 47.4362 242.201 47.2788C241.656 47.1353 241.105 47.022 240.548 46.9387L240.284 46.8666C240.176 46.8348 240.066 46.8087 239.955 46.7885C239.527 47.1022 239.177 47.5144 238.796 47.8874C238.262 48.4041 237.768 48.9601 237.202 49.4507C236.978 49.634 236.8 49.8762 236.556 50.0462C236.457 50.131 236.312 50.2031 236.325 50.3471C236.319 50.6739 236.299 51.0013 236.299 51.3217L236.247 51.4068C236.24 51.7598 236.128 52.0938 236.102 52.4401C236.062 52.6887 236.056 52.9376 235.996 53.1862C235.989 53.3601 235.966 53.5323 235.93 53.703C235.832 54.2851 235.772 54.8804 235.667 55.4627C235.562 56.0449 235.489 56.4504 235.43 56.9543C235.369 57.1485 235.329 57.3468 235.311 57.5495C235.272 57.9551 235.173 58.3606 235.173 58.7727L235.608 58.5897C236.108 58.5177 236.636 58.511 237.109 58.3149L237.254 58.2885L237.716 58.1512L237.887 58.0858C237.933 57.5298 238.071 56.9869 238.104 56.4309C238.183 55.6263 238.322 54.8216 238.374 54.0104C238.427 53.1993 238.473 52.5844 238.552 51.8777C238.756 51.9433 238.967 52.002 239.177 52.0612C239.929 52.2181 240.68 52.3814 241.437 52.5254C242.194 52.6692 243.123 52.944 243.979 53.0814L244.177 53.1601C244.424 53.2208 244.674 53.2644 244.928 53.2908C244.747 53.555 244.55 53.8059 244.335 54.0429C243.795 54.7955 243.229 55.5214 242.682 56.2674C242.135 57.013 241.582 57.7525 241.088 58.5372C240.857 58.8645 240.574 59.1588 240.343 59.4856C240.051 59.8909 239.735 60.2769 239.395 60.6437C239.072 61.0034 238.829 61.4224 238.479 61.7623C238.479 61.1997 238.578 60.6437 238.657 60.0877C238.682 59.6509 238.733 59.2168 238.809 58.7858C238.196 59.0606 237.544 59.2636 236.965 59.6035C236.385 59.9439 235.7 60.1857 235.061 60.4674C234.422 60.7486 233.744 61.1408 233.059 61.4289C232.143 61.8144 231.287 62.3119 230.385 62.7174C230.582 62.9725 230.747 63.2539 230.924 63.5221C231.254 63.993 231.57 64.4707 231.88 64.948C232.038 65.19 232.249 65.3997 232.387 65.6548C232.848 66.5312 233.48 67.3032 233.974 68.1601C234.468 69.0171 234.949 69.7761 235.483 70.5676C235.746 71.0188 236.095 71.4179 236.339 71.8826C236.385 71.9936 236.51 72.1048 236.437 72.2292C236.233 72.5826 235.911 72.8377 235.621 73.1189C235.041 73.701 234.442 74.2701 233.856 74.8458C233.625 75.1139 233.388 75.3756 233.131 75.6243C232.874 75.8729 232.591 76.2656 232.275 76.5402C231.959 76.8149 231.583 77.2858 231.168 77.5801L231.149 77.77C231.452 77.8223 231.748 77.901 232.051 77.9597C232.354 78.0187 232.848 78.123 233.243 78.2343L233.441 78.3065C233.75 78.3716 234.053 78.457 234.363 78.5421C234.672 78.6269 235.035 78.6464 235.351 78.7577C236.062 78.9738 236.8 79.0981 237.525 79.2747L237.781 79.3465C238.073 79.3936 238.361 79.459 238.644 79.5428C238.852 79.5991 239.062 79.6383 239.276 79.6607C238.69 80.6289 238.381 81.7278 237.828 82.7154C237.742 82.8659 237.597 83.0364 237.709 83.2127C238.025 83.8015 238.302 84.4165 238.572 85.0312C239.191 85.9537 239.757 86.9152 240.343 87.8575C240.956 88.6685 241.397 89.5844 241.997 90.4087C242.199 90.7923 242.405 91.1739 242.616 91.5533C242.642 90.7097 242.623 89.8722 242.649 89.0284C242.701 88.6229 242.688 88.2107 242.722 87.7988C242.781 87.504 242.735 87.2097 242.807 86.9152C242.86 85.8294 242.919 84.75 242.998 83.6641C243.018 83.5398 242.998 83.3958 243.096 83.3045C243.439 82.879 243.88 82.5519 244.262 82.1659C244.645 81.7798 244.967 81.5643 245.284 81.2174C245.6 80.8709 245.87 80.7135 246.153 80.4523C246.14 80.6745 246.146 80.9034 246.087 81.1193C246.038 81.3948 246.003 81.6716 245.982 81.9503C245.85 82.3099 245.83 82.696 245.758 83.0689C245.731 83.1602 245.705 83.2453 245.679 83.3371L245.666 83.5331L245.613 83.6118C245.574 84.0435 245.494 84.4752 245.435 84.9004L245.356 85.1621C245.29 85.5089 245.237 85.8619 245.158 86.209C245.079 86.5553 245.014 87.1118 244.921 87.5565C244.852 87.802 244.797 88.0506 244.757 88.302C244.691 88.8977 244.506 89.4731 244.394 90.0619L244.322 90.2583C244.256 90.52 244.197 90.7817 244.137 91.0498L244.058 91.2459C244.025 91.442 243.96 91.6386 243.953 91.8347C244.052 92.2077 244.276 92.5281 244.453 92.8618C244.631 93.1953 244.882 93.6275 245.066 94.0261C245.282 94.346 245.468 94.682 245.626 95.0337C245.942 95.5177 246.153 96.0606 246.489 96.5253C246.825 96.9896 247.029 97.5194 247.305 98.0103C247.42 98.2463 247.547 98.4755 247.687 98.6972L247.727 98.8149C248.03 99.2596 248.254 99.7569 248.537 100.215C248.564 100.032 248.596 99.8482 248.636 99.6718L248.715 99.4165C248.735 99.3319 248.755 99.2401 248.774 99.1548L248.834 98.9459L248.88 98.8997C248.934 98.5401 249.008 98.1847 249.104 97.8334C249.216 97.4543 249.249 97.0552 249.394 96.6822L249.565 96.0345C250.46 96.7804 251.396 97.4868 252.338 98.1671C252.601 98.3632 252.805 98.625 253.075 98.8085C253.345 98.9915 253.728 99.3314 254.083 99.5539C254.368 99.732 254.629 99.9397 254.867 100.175C255.282 100.568 255.789 100.862 256.217 101.249C256.52 101.484 256.797 101.758 257.093 102.001C257.311 101.818 257.515 101.615 257.739 101.438C258.378 100.96 258.964 100.424 259.603 99.9466C260.057 99.5344 260.591 99.2271 261.045 98.8216C261.5 98.4158 262.112 97.9577 262.672 97.5586C263.324 97.0488 263.983 96.5448 264.668 96.0806C264.734 96.3423 264.793 96.5971 264.865 96.8586L264.944 97.0552C264.997 97.3364 265.037 97.6242 265.109 97.9054C265.274 98.2981 265.294 98.7298 265.379 99.1484L265.445 99.3514C265.511 99.6326 265.564 99.9204 265.623 100.208L265.722 100.175C265.788 99.9991 265.871 99.8312 265.972 99.6718C266.387 99.1158 266.644 98.4681 266.993 97.8729C267.342 97.2774 267.737 96.5253 268.139 95.8709C268.877 94.4647 269.687 93.0974 270.365 91.6581C270.287 91.5012 270.214 91.3443 270.141 91.1808C269.95 90.4674 269.779 89.7415 269.628 89.022C269.516 88.5637 269.503 88.093 269.384 87.6347C269.265 87.1769 269.219 86.582 269.074 86.0716C268.93 85.5612 268.923 85.2083 268.831 84.7761C268.738 84.3444 268.705 83.8474 268.574 83.3958C268.442 82.9446 268.429 82.3361 268.284 81.8129C268.139 81.2895 268.119 80.8906 268.073 80.4259C268.409 80.7271 268.738 81.0344 269.094 81.3025C269.469 81.7147 269.924 82.0416 270.319 82.4342C270.655 82.7285 270.951 83.0689 271.301 83.3437C271.301 83.9517 271.373 84.5539 271.38 85.1621C271.427 85.5926 271.447 86.0247 271.439 86.4576L271.498 86.5292C271.498 86.8501 271.485 87.1769 271.538 87.4909C271.636 88.8385 271.636 90.1862 271.65 91.5338C271.73 91.4462 271.798 91.3503 271.854 91.2459C271.953 90.8599 272.177 90.5266 272.381 90.1927C272.737 89.578 273.178 89.0089 273.52 88.3806C274.08 87.6086 274.548 86.778 275.062 85.9798C275.246 85.7245 275.358 85.4239 275.549 85.1686C275.951 84.6387 276.109 83.9848 276.399 83.3958C276.465 83.252 276.543 83.1015 276.504 82.9379C276.465 82.7747 276.293 82.5063 276.208 82.2838C276.122 82.0613 275.964 81.7865 275.872 81.5317C275.727 81.0083 275.391 80.5633 275.22 80.0468L275.035 79.6607C275.536 79.5495 276.036 79.4316 276.537 79.3267L276.807 79.255C277.064 79.1894 277.327 79.1373 277.591 79.085C277.98 78.9607 278.381 78.9017 278.783 78.83L278.981 78.7513C279.29 78.6795 279.599 78.627 279.903 78.5488L280.094 78.4765C280.428 78.4195 280.758 78.3408 281.082 78.2409C281.477 78.1297 281.879 78.0579 282.274 77.9531L282.939 77.8223L283.229 77.7962C282.913 77.4296 282.544 77.1354 282.241 76.7824Z" fill="white"/>
</g>
<mask id="mask4_40000173_266" style="mask-type:luminance" maskUnits="userSpaceOnUse" x="240" y="55" width="18" height="28">
<path d="M240.139 55.5945H257.068V82.3092H240.139V55.5945Z" fill="white"/>
</mask>
<g mask="url(#mask4_40000173_266)">
<path d="M268.237 71.8972C268.876 71.3802 269.475 70.8111 270.147 70.3269C270.364 70.1764 270.542 69.9803 270.74 69.8035C271.096 69.483 271.504 69.2149 271.84 68.8681C272.176 68.5215 272.584 68.2598 272.947 67.9389C273.309 67.6185 273.605 67.3765 273.948 67.1148C273.671 66.7157 273.322 66.3691 273.019 65.9897C272.716 65.6101 272.281 65.1851 271.952 64.7535C271.471 64.099 270.852 63.5431 270.516 62.791C270.351 62.3919 270.141 62.0125 269.969 61.6134C269.87 61.3973 269.772 61.1686 269.587 61.0118C269.219 60.6778 268.889 60.3048 268.494 60.0041C267.84 59.4065 267.168 58.8288 266.478 58.2703C266.179 57.9817 265.864 57.7094 265.536 57.4526C265.036 57.0801 264.575 56.6611 264.101 56.2624C263.87 56.0725 263.613 55.9023 263.396 55.6929L263.291 55.6734C262.053 56.3574 260.775 56.9571 259.457 57.4721C258.68 57.7405 257.949 58.1134 257.198 58.4408C256.869 58.4343 256.585 58.2442 256.282 58.146C255.196 57.59 254.01 57.2565 252.923 56.7005C252.245 56.3668 251.547 56.0659 250.895 55.6667C249.748 56.668 248.543 57.59 247.403 58.5976C246.864 59.0162 246.363 59.4807 245.849 59.9324C245.454 60.2136 245.131 60.5732 244.762 60.8808C244.53 61.0798 244.365 61.324 244.268 61.6134C244.182 61.849 244.044 62.0581 243.946 62.2873C243.748 62.6602 243.629 63.0788 243.359 63.4123C242.74 64.1908 242.108 64.9629 241.436 65.7019C241.068 66.1686 240.668 66.6069 240.237 67.0169L240.264 67.1017C240.896 67.5664 241.443 68.1355 242.055 68.6264C242.404 68.8809 242.681 69.2213 243.024 69.4897C243.709 70.0065 244.314 70.6212 245.026 71.112C245.737 71.6024 246.383 72.1914 247.002 72.7997C247.502 73.2378 247.99 73.7025 248.517 74.1147C248.425 74.7755 248.227 75.4166 248.128 76.0769C247.974 76.6371 247.871 77.2064 247.819 77.7846C248.28 78.1706 248.885 78.3144 249.406 78.6087L249.511 78.8771L249.564 79.1321C249.722 79.6225 249.729 80.1526 249.887 80.6432C249.959 80.9506 250.032 81.2648 250.157 81.5594C250.282 81.8536 250.302 81.991 250.367 82.2066C250.684 81.8862 251.02 81.5722 251.316 81.2384C251.303 80.9703 251.349 80.6237 251.119 80.4271C251.777 80.1526 252.462 79.9434 253.114 79.6425C253.766 79.3413 254.458 79.0535 255.136 78.7723C255.69 78.5041 256.243 78.2424 256.822 78.0266C256.961 77.9676 257.119 77.8764 257.27 77.9676C257.751 78.1837 258.245 78.3862 258.726 78.6154C259.582 78.9948 260.439 79.3546 261.301 79.7207C261.795 79.9368 262.289 80.2051 262.836 80.2508C262.922 80.6237 262.902 81.0098 263.06 81.3628C263.218 81.7162 263.291 81.9974 263.58 82.1869C263.844 81.8862 264.022 81.5196 264.166 81.1536C264.311 80.7873 264.338 80.5781 264.463 80.3097C264.535 79.806 264.555 79.2957 264.621 78.7853C265.174 78.3798 265.866 78.2032 266.413 77.778C266.419 77.3724 266.307 76.9864 266.254 76.5873C266.083 76.2143 266.063 75.7957 265.972 75.3966C265.905 75.1485 265.807 74.9127 265.728 74.6771C265.701 74.5397 265.596 74.3895 265.629 74.2521C266.485 73.4539 267.342 72.6493 268.237 71.8972ZM265.043 66.4478C264.746 66.5852 264.456 66.7421 264.153 66.8536C263.85 66.9643 263.673 66.8336 263.455 66.9318C263.119 67.2455 262.869 67.6316 262.592 67.9917C262.316 68.3516 262.019 68.7176 261.723 69.0711C261.744 69.2268 261.779 69.3792 261.828 69.5287C261.907 70.1439 261.993 70.7652 262.111 71.3737C262.125 71.7331 262.125 72.0933 262.145 72.4532L262.223 72.6623C262.237 72.7931 262.395 72.9766 262.243 73.0809C261.789 73.1204 261.328 73.0743 260.873 73.094C260.26 73.7089 259.562 74.2193 258.95 74.8406C258.405 75.4664 257.805 76.0355 257.152 76.5483C256.888 76.3386 256.585 76.1882 256.341 75.9526C255.98 75.5866 255.617 75.2331 255.288 74.8406C254.669 74.3172 254.135 73.7025 253.476 73.2314C253.078 73.1564 252.676 73.1258 252.271 73.1399L252.113 72.9369C252.106 72.5183 252.1 72.1063 252.119 71.6942C252.157 71.4537 252.176 71.2114 252.179 70.9682L252.238 70.909C252.284 70.2026 252.456 69.5028 252.449 68.7897C252.032 68.4959 251.698 68.1274 251.448 67.6843C251.356 67.527 251.283 67.3634 251.158 67.2325C251.033 67.1017 250.684 66.991 250.427 66.9187C250.065 66.8139 249.729 66.657 249.38 66.5262C249.03 66.3953 248.648 66.1861 248.273 66.0487C248.135 66.0028 247.99 65.9572 247.891 65.8524C247.173 65.1328 246.6 64.289 245.941 63.5169C245.889 63.4513 245.816 63.3667 245.869 63.2749C246.086 62.8563 246.422 62.5293 246.752 62.1955C246.929 61.9994 247.226 62.0058 247.423 61.8359C247.792 61.8159 248.141 61.9338 248.497 62.0058L248.932 62.1368L249.129 62.2019C249.531 62.3655 249.966 62.4244 250.381 62.5685L250.848 62.7254L251.046 62.791C251.389 62.9284 251.751 63.0066 252.106 63.1245L252.251 63.144L252.383 63.2813C252.433 63.5529 252.496 63.8211 252.574 64.086C252.647 64.4982 252.699 64.9167 252.765 65.3289C252.93 65.7936 252.916 66.2904 253.002 66.7618C253.042 66.8925 253.068 67.0235 253.101 67.1609C253.2 67.9655 253.319 68.7702 253.358 69.5815C253.332 69.8165 253.312 70.0521 253.266 70.2877C253.259 70.8698 253.094 71.4389 253.101 72.0215C254.853 72.0146 256.598 72.0476 258.351 72.0279C259.332 72.0279 260.314 72.0146 261.295 72.0279C261.249 71.8841 261.209 71.7467 261.163 71.6024C261.117 71.4586 261.143 71.4389 261.137 71.3543C261.025 70.8111 260.979 70.2618 260.913 69.7122C260.867 69.2931 260.913 68.8681 260.999 68.4623C261.084 68.0568 261.084 67.5403 261.189 67.0953C261.294 66.5388 261.371 65.9784 261.42 65.414L261.473 65.342L261.492 65.1459C261.604 64.5574 261.69 63.9552 261.822 63.3667L261.894 63.2162C262.283 63.0458 262.691 62.9545 263.099 62.8366L263.225 62.804L263.422 62.732L263.686 62.6472C264.542 62.3855 265.405 62.1432 266.268 61.9077C266.525 61.8159 266.788 61.9141 267.052 61.9207C267.671 62.163 268.27 62.6667 268.323 63.3731C268.264 63.7722 267.987 64.086 267.71 64.3608C267.308 64.7924 266.959 65.2766 266.511 65.6627C266.402 65.7717 266.304 65.8894 266.215 66.0159L266.05 66.0684C265.668 66.0748 265.372 66.3035 265.043 66.4478Z" fill="white"/>
</g>
<path d="M249.85 63.7015C249.652 63.4267 249.283 63.3811 249 63.2306C248.552 63.0081 248.071 62.8838 247.584 62.7726C247.352 62.8858 247.113 62.982 246.866 63.0607C246.972 63.2894 247.15 63.4729 247.321 63.6559C247.584 63.9827 247.848 64.3101 248.111 64.6369C248.269 64.8399 248.526 64.9183 248.763 64.997C249.193 65.2008 249.638 65.3596 250.1 65.4743C250.208 65.5039 250.318 65.5113 250.428 65.4968C250.539 65.4817 250.643 65.4462 250.739 65.3895C250.739 65.2651 250.739 65.1408 250.732 65.0165C250.502 64.5323 250.146 64.1401 249.85 63.7015Z" fill="white"/>
<mask id="mask5_40000173_266" style="mask-type:luminance" maskUnits="userSpaceOnUse" x="251" y="80" width="7" height="10">
<path d="M251.053 80.9541H257.068V89.1982H251.053V80.9541Z" fill="white"/>
</mask>
<g mask="url(#mask5_40000173_266)">
<path d="M260.993 83.5085C260.618 83.2273 260.269 82.92 259.893 82.6321C259.188 82.1023 258.503 81.5196 257.687 81.1472L257.489 81.088L257.232 81.0098C257.028 81.048 256.828 81.1028 256.633 81.1733L256.31 81.2846C255.737 81.5396 255.256 81.9387 254.769 82.3178C254.505 82.5926 254.15 82.7495 253.873 83.0048C253.392 83.4434 252.839 83.7964 252.345 84.2216C252.108 84.4246 251.923 84.6797 251.693 84.8953C251.463 85.1113 251.37 85.2879 251.344 85.5366C251.311 85.7635 251.258 85.9858 251.186 86.2038C251.139 86.3412 251.107 86.485 251.067 86.6224L251.383 86.8711C251.862 87.0467 252.33 87.2477 252.786 87.4727C253.129 87.6037 253.478 87.7344 253.814 87.8849C254.38 88.1402 254.986 88.2904 255.539 88.5718L255.645 88.5982C256.099 88.7748 256.527 89.0035 256.989 89.1739C257.364 89.1868 257.687 88.9709 258.023 88.8466C259.024 88.3888 260.071 88.0417 261.079 87.597C261.56 87.3881 262.034 87.1653 262.528 86.9954C262.719 86.9152 262.901 86.8193 263.075 86.7078C263.042 86.2689 262.95 85.8439 262.857 85.4187C262.521 84.5554 261.665 84.0842 260.993 83.5085Z" fill="white"/>
</g>
</g>
</g>
<defs>
<clipPath id="clip0_40000173_266">
<rect width="148" height="148" fill="white" transform="translate(185)"/>
</clipPath>
</defs>
</svg>
